<?xml version="1.0" encoding="UTF-8" standalone="no"?>
<!DOCTYPE svg PUBLIC "-//W3C//DTD SVG 1.1//EN" "http://www.w3.org/Graphics/SVG/1.1/DTD/svg11.dtd">
<svg width="100%" height="100%" viewBox="0 0 64 64" version="1.1" xmlns="http://www.w3.org/2000/svg" xmlns:xlink="http://www.w3.org/1999/xlink" xml:space="preserve" xmlns:serif="http://www.serif.com/" style="fill-rule:evenodd;clip-rule:evenodd;stroke-linecap:round;stroke-linejoin:round;stroke-miterlimit:1.5;">
    <g transform="matrix(1.03932,0,0,1.03932,-1.00638,-0.260064)">
        <g>
            <g transform="matrix(1.64497,0,0,1.64497,-36.8148,-44.778)">
                <path d="M56.398,31.728C56.398,29.618 54.688,27.908 52.579,27.908L26.788,27.908C24.679,27.908 22.969,29.618 22.969,31.728L22.969,57.518C22.969,59.627 24.679,61.337 26.788,61.337L52.579,61.337C54.688,61.337 56.398,59.627 56.398,57.518L56.398,31.728Z" style="fill:rgb(15,0,255);stroke:black;stroke-width:0.85px;"/>
            </g>
            <g transform="matrix(1,0,0,1,-7.01711,23.1341)">
                <text x="17.082px" y="24.111px" style="font-family:'Arial-BoldMT', 'Arial', sans-serif;font-weight:700;font-size:50px;fill:white;stroke:black;stroke-width:1.8px;stroke-linecap:butt;stroke-miterlimit:2;">P</text>
            </g>
        </g>
        <g transform="matrix(0.0612413,0,0,0.0612413,35.1108,29.5932)">
            <path d="M437.333,192L405.333,192L405.333,149.333C405.333,66.99 338.344,0 256,0C173.656,0 106.667,66.99 106.667,149.333L106.667,192L74.667,192C68.771,192 64,196.771 64,202.667L64,469.334C64,492.865 83.135,512 106.667,512L405.334,512C428.865,512 448,492.865 448,469.333L448,202.667C448,196.771 443.229,192 437.333,192ZM287.938,414.823C288.271,417.833 287.303,420.854 285.282,423.115C283.261,425.375 280.365,426.667 277.334,426.667L234.667,426.667C231.636,426.667 228.74,425.375 226.719,423.115C224.698,420.855 223.729,417.834 224.063,414.823L230.792,354.313C219.865,346.365 213.334,333.792 213.334,320C213.334,296.469 232.469,277.333 256.001,277.333C279.533,277.333 298.668,296.468 298.668,320C298.668,333.792 292.137,346.365 281.21,354.313L287.938,414.823ZM341.333,192L170.667,192L170.667,149.333C170.667,102.281 208.948,64 256,64C303.052,64 341.333,102.281 341.333,149.333L341.333,192Z" style="fill:white;fill-rule:nonzero;stroke:rgb(0,0,7);stroke-width:22.91px;stroke-linecap:butt;stroke-miterlimit:2;"/>
        </g>
    </g>
</svg>
