<svg width="448.046" height="448.046" xmlns="http://www.w3.org/2000/svg">

 <g>
  <title>background</title>
  <rect fill="none" id="canvas_background" height="402" width="582" y="-1" x="-1"/>
 </g>
 <g>
  <title>Layer 1</title>
  <g id="svg_1">
   <path id="svg_2" fill="#FFFFFF" class="active-path" d="m298.943997,1.614354c-5.6,-2.72 -12.128,-1.952 -16.928,1.92l-155.648,124.512l-74.368,0c-17.664,0 -32,14.336 -32,32l0,128c0,17.664 14.336,32 32,32l74.368,0l155.616,124.512c2.912,2.304 6.464,3.488 10.016,3.488c2.336,0 4.704,-0.544 6.944,-1.6c5.536,-2.656 9.056,-8.256 9.056,-14.4l0,-416c0,-6.144 -3.52,-11.744 -9.056,-14.432z"/>
  </g>
 </g>
</svg>