<?xml version="1.0" encoding="UTF-8" standalone="no"?>
<!DOCTYPE svg PUBLIC "-//W3C//DTD SVG 1.1//EN" "http://www.w3.org/Graphics/SVG/1.1/DTD/svg11.dtd">
<svg width="100%" height="100%" viewBox="0 0 64 57" version="1.1" xmlns="http://www.w3.org/2000/svg" xmlns:xlink="http://www.w3.org/1999/xlink" xml:space="preserve" xmlns:serif="http://www.serif.com/" style="fill-rule:evenodd;clip-rule:evenodd;stroke-linejoin:round;stroke-miterlimit:2;">
    <g transform="matrix(1,0,0,1,-0.12042,-1.76318)">
        <g transform="matrix(0.970922,0,0,0.970922,-216.556,-219.556)">
            <g transform="matrix(0.117165,0,0,0.115535,225.998,227.244)">
                <path d="M74.546,481.398L38.268,481.398L63.92,455.746C77.751,441.914 86.389,423.924 88.711,404.409C29.479,365.538 0,309.227 0,250.193C0,141.281 100.1,30.602 256.868,30.602C422.946,30.602 512,132.448 512,240.651C512,349.567 422.005,451.345 256.868,451.345C227.939,451.345 197.753,447.483 170.803,440.398C145.291,466.565 110.723,481.398 74.546,481.398Z" style="fill:none;fill-rule:nonzero;stroke:white;stroke-width:48.69px;"/>
            </g>
        </g>
    </g>
</svg>
