<?xml version="1.0" encoding="UTF-8" standalone="no"?>
<!DOCTYPE svg PUBLIC "-//W3C//DTD SVG 1.1//EN" "http://www.w3.org/Graphics/SVG/1.1/DTD/svg11.dtd">
<svg width="100%" height="100%" viewBox="0 0 64 64" version="1.1" xmlns="http://www.w3.org/2000/svg" xmlns:xlink="http://www.w3.org/1999/xlink" xml:space="preserve" xmlns:serif="http://www.serif.com/" style="fill-rule:evenodd;clip-rule:evenodd;stroke-linejoin:round;stroke-miterlimit:2;">
    <g transform="matrix(0.133333,0,0,0.142851,2.13163e-14,-2.28423)">
        <path d="M278.944,17.577C273.376,14.921 266.816,15.625 262.016,19.497L106.368,144.009L32,144.009C14.368,144.009 0,158.377 0,176.009L0,304.009C0,321.673 14.368,336.009 32,336.009L106.368,336.009L261.984,460.521C264.896,462.825 268.448,464.009 272,464.009C274.368,464.009 276.736,463.465 278.944,462.409C284.48,459.753 288,454.153 288,448.009L288,32.009C288,25.865 284.48,20.265 278.944,17.577Z" style="fill:white;fill-rule:nonzero;"/>
        <path d="M368.992,126.857C362.688,120.649 352.576,120.745 346.368,126.985C340.16,133.289 340.224,143.401 346.496,149.641C370.688,173.513 384,205.609 384,240.009C384,274.409 370.688,306.505 346.496,330.377C340.224,336.553 340.16,346.697 346.368,353.001C349.504,356.169 353.632,357.737 357.728,357.737C361.792,357.737 365.856,356.201 368.992,353.097C399.328,323.241 416,283.049 416,240.009C416,196.969 399.328,156.777 368.992,126.857Z" style="fill:white;fill-rule:nonzero;"/>
        <path d="M414.144,81.769C407.84,75.529 397.728,75.593 391.488,81.865C385.28,88.137 385.344,98.281 391.584,104.489C427.968,140.553 448,188.681 448,240.009C448,291.337 427.968,339.433 391.584,375.497C385.344,381.737 385.28,391.881 391.488,398.153C394.656,401.289 398.752,402.857 402.848,402.857C406.912,402.857 411.008,401.321 414.144,398.217C456.64,356.137 480,299.945 480,240.009C480,180.073 456.64,123.881 414.144,81.769Z" style="fill:white;fill-rule:nonzero;"/>
    </g>
</svg>
