<?xml version="1.0" encoding="UTF-8" standalone="no"?>
<!DOCTYPE svg PUBLIC "-//W3C//DTD SVG 1.1//EN" "http://www.w3.org/Graphics/SVG/1.1/DTD/svg11.dtd">
<svg width="100%" height="100%" viewBox="0 0 100 100" version="1.1" xmlns="http://www.w3.org/2000/svg" xmlns:xlink="http://www.w3.org/1999/xlink" xml:space="preserve" xmlns:serif="http://www.serif.com/" style="fill-rule:evenodd;clip-rule:evenodd;stroke-linejoin:round;stroke-miterlimit:2;">
    <g id="header" transform="matrix(0.851642,0,0,0.851642,8.75512,-6.40465)">
        <g>
            <path d="M49.557,22.436C65.493,22.436 78.431,35.374 78.431,51.31C78.431,67.246 65.493,80.184 49.557,80.184C33.621,80.184 20.683,67.246 20.683,51.31C20.683,35.374 33.621,22.436 49.557,22.436ZM37.252,43.703L32.481,43.703C31.825,43.703 31.288,44.237 31.288,44.896L31.288,66.367C31.288,67.026 31.823,67.56 32.481,67.56L37.252,67.56C37.911,67.56 38.445,67.026 38.445,66.367L38.445,44.896C38.445,44.237 37.908,43.703 37.252,43.703ZM64.847,43.703C64.655,43.67 55.66,43.703 55.66,43.703L56.917,40.275C57.784,37.908 57.222,34.293 54.817,33.008C54.034,32.59 52.939,32.379 52.057,32.601C51.551,32.729 51.107,33.064 50.841,33.513C50.537,34.029 50.568,34.631 50.46,35.204C50.184,36.655 49.498,38.035 48.436,39.071C46.584,40.878 40.831,46.088 40.831,46.088L40.831,65.174L60.712,65.174C63.395,65.176 65.153,62.18 63.83,59.84C65.407,58.83 65.946,56.702 65.023,55.069C66.6,54.059 67.139,51.931 66.216,50.297C68.937,48.554 68.027,44.241 64.847,43.703Z"/>
        </g>
        <path d="M47.965,9.177C48.929,8.534 50.185,8.534 51.148,9.177C52.66,10.187 54.884,11.673 56.154,12.522C56.786,12.944 57.56,13.098 58.305,12.95C59.804,12.652 62.427,12.13 64.21,11.775C65.346,11.549 66.507,12.03 67.151,12.994C68.161,14.505 69.647,16.729 70.496,18C70.918,18.631 71.574,19.07 72.319,19.218C73.818,19.516 76.441,20.038 78.224,20.392C79.36,20.618 80.249,21.507 80.475,22.643C80.829,24.426 81.351,27.049 81.649,28.548C81.797,29.293 82.236,29.949 82.867,30.371C84.138,31.22 86.362,32.706 87.873,33.716C88.837,34.36 89.317,35.521 89.091,36.657C88.737,38.44 88.215,41.063 87.917,42.562C87.769,43.307 87.923,44.081 88.345,44.712C89.194,45.983 90.68,48.207 91.69,49.718C92.333,50.682 92.333,51.938 91.69,52.902C90.68,54.413 89.194,56.637 88.345,57.908C87.923,58.539 87.769,59.313 87.917,60.058C88.215,61.557 88.737,64.181 89.091,65.963C89.317,67.1 88.837,68.26 87.873,68.904C86.362,69.914 84.138,71.4 82.867,72.249C82.236,72.671 81.797,73.327 81.649,74.072C81.351,75.571 80.829,78.194 80.475,79.977C80.249,81.113 79.36,82.002 78.224,82.228C76.441,82.582 73.818,83.104 72.319,83.402C71.574,83.551 70.918,83.989 70.496,84.621C69.647,85.891 68.161,88.115 67.151,89.627C66.507,90.59 65.346,91.071 64.21,90.845C62.427,90.49 59.804,89.968 58.305,89.67C57.56,89.522 56.786,89.676 56.154,90.098C54.884,90.947 52.66,92.433 51.148,93.443C50.185,94.087 48.929,94.087 47.965,93.443C46.454,92.433 44.23,90.947 42.959,90.098C42.327,89.676 41.554,89.522 40.809,89.67C39.31,89.968 36.686,90.49 34.904,90.845C33.767,91.071 32.607,90.59 31.963,89.627C30.953,88.115 29.467,85.891 28.618,84.621C28.196,83.989 27.54,83.551 26.795,83.402C25.296,83.104 22.673,82.582 20.89,82.228C19.753,82.002 18.865,81.113 18.639,79.977C18.284,78.194 17.763,75.571 17.464,74.072C17.316,73.327 16.878,72.671 16.246,72.249C14.976,71.4 12.752,69.914 11.24,68.904C10.277,68.26 9.796,67.1 10.022,65.963C10.377,64.181 10.899,61.557 11.197,60.058C11.345,59.313 11.191,58.539 10.769,57.908C9.92,56.637 8.434,54.413 7.424,52.902C6.78,51.938 6.78,50.682 7.424,49.718C8.434,48.207 9.92,45.983 10.769,44.712C11.191,44.081 11.345,43.307 11.197,42.562C10.899,41.063 10.377,38.44 10.022,36.657C9.796,35.521 10.277,34.36 11.24,33.716C12.752,32.706 14.976,31.22 16.246,30.371C16.878,29.949 17.316,29.293 17.464,28.548C17.763,27.049 18.284,24.426 18.639,22.643C18.865,21.507 19.753,20.618 20.89,20.392C22.673,20.038 25.296,19.516 26.795,19.218C27.54,19.07 28.196,18.631 28.618,18C29.467,16.729 30.953,14.505 31.963,12.994C32.607,12.03 33.767,11.549 34.904,11.775C36.686,12.13 39.31,12.652 40.809,12.95C41.554,13.098 42.327,12.944 42.959,12.522C44.23,11.673 46.454,10.187 47.965,9.177ZM49.557,18.675C67.568,18.675 82.192,33.298 82.192,51.31C82.192,69.322 67.568,83.945 49.557,83.945C31.545,83.945 16.922,69.322 16.922,51.31C16.922,33.298 31.545,18.675 49.557,18.675Z"/>
    </g>
    <g transform="matrix(1.03129,0,0,0.933651,-3.23969,6.37314)">
        <path d="M71.38,67.863C71.38,67.863 69.421,71.462 67.641,71.99C65.681,72.57 62.135,70.74 59.62,71.348C57.106,71.956 54.852,75.63 52.555,75.637C50.257,75.644 48.35,72.011 45.836,71.388C43.321,70.765 39.518,72.486 37.469,71.898C35.663,71.381 33.537,67.863 33.537,67.863C33.537,67.863 33.439,90.284 33.415,95.931C33.413,96.219 33.541,96.49 33.756,96.653C33.971,96.816 34.245,96.851 34.488,96.746C38.532,95.004 52.555,88.962 52.555,88.962C52.555,88.962 66.559,94.995 70.613,96.742C70.857,96.847 71.132,96.812 71.347,96.647C71.563,96.483 71.69,96.211 71.687,95.922C71.625,90.257 71.38,67.863 71.38,67.863Z"/>
    </g>
</svg>
