<svg xmlns="http://www.w3.org/2000/svg" xmlns:xlink="http://www.w3.org/1999/xlink" version="1.1" x="0px" y="0px" viewBox="0 0 100 125" enable-background="new 0 0 100 100" fill="#ffffff" xml:space="preserve"><path d="M50,63.9L50,63.9c-6.6,0-11.9-5.4-11.9-11.9V28.2c0-6.6,5.4-11.9,11.9-11.9h0c6.6,0,11.9,5.4,11.9,11.9v23.8  C61.9,58.5,56.6,63.9,50,63.9z"/><rect x="50" y="21" width="0" height="0"/><path d="M70.3,52L70.3,52c-1.5,0-2.7,1.1-2.9,2.6c-1.2,8.5-8.6,15-17.4,15c-8.8,0-16.1-6.5-17.4-15c-0.2-1.5-1.4-2.6-2.9-2.6h0  c-1.8,0-3.2,1.5-2.9,3.3c1.4,10.3,9.7,18.5,20,19.9v8.6h6.3v-8.6c10.4-1.4,18.6-9.6,20.1-19.9C73.4,53.5,72,52,70.3,52z"/></svg>